<?xml version="1.0" encoding="utf-8"?>
<!-- Generator: Adobe Illustrator 21.0.2, SVG Export Plug-In . SVG Version: 6.00 Build 0)  -->
<svg version="1.1" id="Mode_Isolation" xmlns="http://www.w3.org/2000/svg" xmlns:xlink="http://www.w3.org/1999/xlink" x="0px"
	 y="0px" viewBox="0 0 230.6 50.8" style="enable-background:new 0 0 230.6 50.8;" xml:space="preserve">
<style type="text/css">
	.st0{fill:#252e38;}
</style>
<path class="st0" d="M170.5,49.6c-3.6,0-7.1,0-10.7,0c0-1,0-1.9,0-2.7c-1.4,0.9-2.7,2.1-4.2,2.8c-5.5,2.3-12.5,0.5-16.3-4
	c-5-5.9-5.4-14.5-1.1-20.9c4.7-7,15-8.5,21-3.1c0.1,0.1,0.2,0.2,0.5,0.4c0-0.9,0-1.7,0-2.5c3.7,0,7.2,0,10.8,0
	C170.5,29.5,170.5,39.5,170.5,49.6z M153.3,27.7c-4.1,0-6.9,2.9-6.9,6.9c0,4,2.9,6.8,6.9,6.8c4.1,0,7-2.8,7-6.8
	C160.3,30.6,157.3,27.7,153.3,27.7z"/>
<path class="st0" d="M24.5,22.1c0-1,0-1.8,0-2.7c3.6,0,7.1,0,10.7,0c0,10,0,20,0,30.1c-3.5,0-7,0-10.7,0c0-1,0-2,0-2.8
	c-1.4,0.9-2.6,2.2-4.2,2.8c-5.2,2.1-10.1,1.3-14.4-2.2c-7.7-6.1-8-18.3-1-25.1C10.1,17.5,19.2,16.8,24.5,22.1z M18,41.4
	c4.1,0,6.9-2.8,6.9-6.8c0-4-2.9-6.9-6.9-6.9c-4.1,0-7,2.9-6.9,6.9C11.1,38.5,14,41.4,18,41.4z"/>
<path class="st0" d="M49.7,49.6c-3.7,0-7.2,0-10.7,0c0-10.1,0-20,0-30.1c3.6,0,7.1,0,10.7,0c0,1.2,0,2.3,0,3.7
	c0.3-0.2,0.5-0.3,0.6-0.4C53,18.8,57,18,61.4,18.5c3.5,0.4,6.5,1.7,8,5.1c0.9,1.9,1.5,4.1,1.6,6.2c0.2,6.6,0.1,13.2,0.1,19.9
	c-3.6,0-7.1,0-10.8,0c0-0.4,0-0.9,0-1.3c0-5,0-9.9,0-14.9c0-1.2-0.1-2.5-0.5-3.6c-0.7-2-2-2.8-4.5-2.8C53,27,51,28,50.5,29.9
	c-0.4,1.3-0.7,2.8-0.7,4.2c-0.1,4.7,0,9.4,0,14.1C49.7,48.6,49.7,49.1,49.7,49.6z"/>
<path class="st0" d="M208.1,36.3c-0.2,4.2,2.2,6.5,6,6.7c2.2,0.1,4.2-0.3,5.5-2.4c0.1-0.2,0.4-0.4,0.7-0.4c3.3,0,6.5,0,9.9,0
	c-0.9,3.8-3.2,6.5-6.4,8.3c-6.1,3.4-15.5,2.7-21-1.6c-3.3-2.6-5-6.1-5.4-10.2c-0.4-3.4,0-6.7,1.5-9.8c2.2-4.7,6-7.2,10.9-8.2
	c4.2-0.8,8.4-0.6,12.3,1.2c5.5,2.5,7.9,7.1,8.4,12.9c0.1,1,0,2,0,3c0,0.1-0.1,0.2-0.1,0.5C223,36.3,215.6,36.3,208.1,36.3z
	 M220.6,30c-0.4-2.9-3.3-4.9-6.3-4.7c-3.3,0.2-5.7,2.1-5.9,4.7C212.5,30,216.5,30,220.6,30z"/>
<path class="st0" d="M177.7,28.2c-1.4,0-2.5,0-3.7,0c0-2.9,0-5.8,0-8.8c1.2,0,2.3,0,3.6,0c0-0.7,0-1.2,0-1.7
	c0.2-2.8,0.1-5.6,0.7-8.3c1-4.3,4.1-7,8.2-8.5c2.9-1.1,5.8-1.3,8.8-0.1c0.3,0.1,0.7,0.6,0.7,0.9c0.1,2.8,0,5.7,0,8.6
	c-0.8-0.2-1.5-0.5-2.2-0.7c-3.2-0.9-5,0.3-5.2,3.5c-0.1,2,0,4,0,6.2c2.4,0,4.9,0,7.4,0c0,3,0,5.8,0,8.8c-2,0-4,0-5.9,0
	c-1.6,0-1.6,0-1.6,1.6c0,6.1,0,12.2,0,18.3c0,0.4,0,0.9,0,1.4c-3.6,0-7,0-10.7,0C177.7,42.5,177.7,35.4,177.7,28.2z"/>
<path class="st0" d="M87.4,19.4c2.2,0,4.1,0,6.1,0c0,3,0,5.8,0,8.7c-1.9,0-3.9,0-6,0c0,7.2,0,14.3,0,21.4c-3.7,0-7.2,0-10.8,0
	c0-7.1,0-14.2,0-21.4c-1.2,0-2.3,0-3.4,0c0-3,0-5.8,0-8.8c1.1,0,2.2,0,3.4,0c0-3.1,0-6,0-9c3.6,0,7.1,0,10.7,0
	C87.4,13.3,87.4,16.3,87.4,19.4z"/>
<path class="st0" d="M133.1,29.1c-5.4-2.7-8.9-2.4-11.4,0.8c-2.1,2.8-2,6.9,0.2,9.5c2.6,3.1,6.5,3.3,11.2,0.6c0,1.7,0,3.3,0,4.9
	c0,1-0.1,2,0,3c0.1,0.8-0.3,1.2-1,1.5c-7.6,3-16.7,0.5-20.9-6.5c-2.1-3.6-2.7-7.4-1.9-11.5c1.1-5.5,4.2-9.4,9.3-11.6
	c4.3-1.9,8.8-2.1,13.3-0.3c0.8,0.3,1.2,0.8,1.2,1.8C133.1,23.8,133.1,26.4,133.1,29.1z"/>
<path class="st0" d="M106.5,49.6c-3.6,0-7.1,0-10.6,0c0-10,0-20,0-30.1c3.5,0,7,0,10.6,0C106.5,29.5,106.5,39.5,106.5,49.6z"/>
<path class="st0" d="M101.2,13.8c-3.3,0-6-2.7-6.1-6c0-3.3,2.7-6.1,6-6.1c3.3,0,6.1,2.8,6.1,6.1C107.2,11,104.4,13.8,101.2,13.8z"/>
<path class="st0" d="M208,11.4c2.8-3.4,5.5-6.8,8.3-10.2c2.2,1.6,4.4,3.1,6.6,4.7c-3.2,2.9-6.4,5.7-9.6,8.5
	c-0.2,0.2-0.7,0.2-0.9,0.1C210.9,13.5,209.5,12.4,208,11.4z"/>
</svg>
