<?xml version="1.0" encoding="UTF-8" standalone="no"?>
<svg
   xmlns:dc="http://purl.org/dc/elements/1.1/"
   xmlns:cc="http://creativecommons.org/ns#"
   xmlns:rdf="http://www.w3.org/1999/02/22-rdf-syntax-ns#"
   xmlns:svg="http://www.w3.org/2000/svg"
   xmlns="http://www.w3.org/2000/svg"
   viewBox="0 0 767.64001 536.01331"
   height="536.01331"
   width="767.64001"
   xml:space="preserve"
   id="svg2"
   version="1.1"><metadata
     id="metadata8"><rdf:RDF><cc:Work
         rdf:about=""><dc:format>image/svg+xml</dc:format><dc:type
           rdf:resource="http://purl.org/dc/dcmitype/StillImage" /></cc:Work></rdf:RDF></metadata><defs
     id="defs6" /><g
     transform="matrix(1.3333333,0,0,-1.3333333,0,536.01333)"
     id="g10"><g
       transform="scale(0.1)"
       id="g12"><path
         id="path14"
         style="fill:#ec008c;fill-opacity:1;fill-rule:nonzero;stroke:none"
         d="m 457.285,2041.47 v -71.88 c 0,-127.56 -60.137,-191.2 -180.156,-191.2 H 179.797 C 59.8438,1778.39 0,1842.03 0,1969.59 v 742.21 c 0,127.38 59.8438,191.17 179.797,191.17 h 97.332 c 120.019,0 180.156,-63.79 180.156,-191.17 V 2584.98 H 306.816 v 115.85 c 0,43.78 -22.453,65.97 -67.265,65.97 h -29.68 c -39.91,0 -59.734,-22.19 -59.734,-65.97 v -720.35 c 0,-43.89 19.824,-65.73 59.734,-65.73 h 37.59 c 39.531,0 59.355,21.84 59.355,65.73 v 60.99 h 150.469" /><path
         id="path16"
         style="fill:#ec008c;fill-opacity:1;fill-rule:nonzero;stroke:none"
         d="m 941.105,2600.59 v 98.62 c 0,44.85 -21.933,67.59 -65.824,67.59 h -23.562 c -42.703,0 -64.114,-22.74 -64.114,-67.59 v -186.18 c 0,-20.99 4.075,-34.88 12.395,-42.35 8.367,-7.4 21.992,-16.83 40.723,-28.31 l 142.492,-76.71 c 31.555,-17.55 53.645,-31.67 66.665,-41.51 13.09,-10.11 23.03,-21.94 30.62,-36.06 7.28,-14.02 10.9,-40.9 10.9,-80.57 V 1968.1 c 0,-126.5 -60.63,-189.71 -181.732,-189.71 h -92.227 c -120.007,0 -180.363,69.05 -180.363,206.7 v 56.38 h 150.527 v -60.99 c 0,-43.89 22.305,-65.73 67.266,-65.73 h 26.66 c 39.629,0 59.574,21.84 59.574,65.73 v 191.1 c 0,20.76 -4.203,35.06 -12.628,42.15 -8.465,7.38 -21.934,16.94 -40.75,28.32 l -142.414,79.71 c -31.497,16.83 -54.09,31.08 -68.204,42.4 -13.925,11.4 -24.226,26.06 -30.554,44.53 -6.242,18.36 -9.477,42.14 -9.477,71.42 v 230.13 c 0,128.41 60.356,192.73 180.363,192.73 h 93.809 c 120.18,0 180.15,-64.32 180.15,-192.73 V 2600.59 H 941.105" /><path
         id="path18"
         style="fill:#ec008c;fill-opacity:1;fill-rule:nonzero;stroke:none"
         d="m 1534.6,2766.8 v -988.41 h -150.47 v 988.41 h -143.98 v 136.17 h 438.6 V 2766.8 H 1534.6" /><path
         id="path20"
         style="fill:#ec008c;fill-opacity:1;fill-rule:nonzero;stroke:none"
         d="m 2154.76,2360.55 v 340.28 c 0,43.78 -21.95,65.97 -65.74,65.97 h -40.78 c -43.72,0 -65.75,-22.19 -65.75,-65.97 v -340.28 z m -172.27,-582.16 h -150.28 v 931.85 c 0,128.41 60.16,192.73 180.18,192.73 h 112.75 c 119.95,0 179.99,-64.32 179.99,-192.73 v -931.85 h -150.37 v 453.84 h -172.27 v -453.84" /><path
         id="path22"
         style="fill:#ec008c;fill-opacity:1;fill-rule:nonzero;stroke:none"
         d="m 2669.82,2360.94 h 98.65 c 44.87,0 67.24,27.14 67.24,81.43 v 242.92 c 0,54.4 -22.37,81.51 -67.24,81.51 h -98.65 z m -150.47,542.03 h 294.41 c 115.09,0 172.29,-64.32 172.29,-192.73 v -277.27 c 0,-98.17 -29.68,-160.18 -89.13,-186.39 l 104.88,-468.19 h -142.54 l -98.59,454.11 h -90.85 v -454.11 h -150.47 v 1124.58" /><path
         id="path24"
         style="fill:#ec008c;fill-opacity:1;fill-rule:nonzero;stroke:none"
         d="M 80.7422,494.371 V 1618.87 H 231.074 V 494.371 H 80.7422" /><path
         id="path26"
         style="fill:#ec008c;fill-opacity:1;fill-rule:nonzero;stroke:none"
         d="m 761.965,1075.42 v 543.45 H 912.336 V 494.371 H 761.965 V 718.469 L 600.781,1230.37 V 494.371 H 450.461 V 1618.87 h 150.32 l 161.184,-543.45" /><path
         id="path28"
         style="fill:#ec008c;fill-opacity:1;fill-rule:nonzero;stroke:none"
         d="m 1281.8,630.781 h 112.93 c 39.43,0 59.39,16.641 59.39,49.821 V 1401.1 c 0,54.35 -22.53,81.32 -67.41,81.32 H 1281.8 Z M 1131.56,494.371 V 1618.87 h 261.55 c 141.05,0 211.33,-72.18 211.33,-216.15 V 657.281 c 0,-108.82 -59.97,-162.91 -180,-162.91 h -292.88" /><path
         id="path30"
         style="fill:#ec008c;fill-opacity:1;fill-rule:nonzero;stroke:none"
         d="M 2304.53,1618.87 V 707.398 c 0,-141.988 -58.49,-213.027 -175.64,-213.027 h -122.65 c -116.01,0 -174.03,71.508 -174.03,214.488 v 910.011 h 145.12 V 704.379 c 0,-49.078 21.25,-73.598 63.5,-73.598 h 59.14 c 39.34,0 59.1,24.52 59.1,73.598 v 914.491 h 145.46" /><path
         id="path32"
         style="fill:#ec008c;fill-opacity:1;fill-rule:nonzero;stroke:none"
         d="m 2811.81,1316.56 v 98.66 c 0,44.83 -21.95,67.2 -65.74,67.2 h -23.48 c -42.9,0 -64.26,-22.37 -64.26,-67.2 v -186.43 c 0,-20.71 4.02,-34.83 12.5,-42.05 8.48,-7.64 21.83,-17.01 40.66,-28.51 l 142.6,-76.56 c 31.37,-17.73 53.51,-31.64 66.52,-41.51 13.04,-10.17 23.12,-22.15 30.62,-36.11 7.23,-14.05 10.9,-40.851 10.9,-80.53 V 683.871 c 0,-126.359 -60.65,-189.5 -181.68,-189.5 h -92.59 c -119.82,0 -180.03,68.961 -180.03,206.649 v 56.41 h 150.5 v -60.899 c 0,-43.972 22.4,-65.75 67.07,-65.75 h 26.86 c 39.57,0 59.55,21.778 59.55,65.75 V 887.41 c 0,20.891 -4.22,35.012 -12.43,42.289 -8.49,7.43 -22.1,16.852 -40.93,28.18 l -142.41,79.651 c -31.55,16.98 -54.1,30.96 -68.2,42.6 -13.87,11.4 -24.23,26.15 -30.46,44.45 -6.34,18.27 -9.55,42.29 -9.55,71.5 v 230.13 c 0,128.33 60.21,192.66 180.03,192.66 h 94.06 c 120.06,0 180.21,-64.33 180.21,-192.66 v -109.65 h -150.32" /><path
         id="path34"
         style="fill:#ec008c;fill-opacity:1;fill-rule:nonzero;stroke:none"
         d="M 3405.2,1482.42 V 494.371 H 3255 v 988.049 h -144.06 v 136.45 h 438.47 V 1482.42 H 3405.2" /><path
         id="path36"
         style="fill:#ec008c;fill-opacity:1;fill-rule:nonzero;stroke:none"
         d="m 3864.14,1076.98 h 98.63 c 44.85,0 67.27,26.97 67.27,81.25 v 242.87 c 0,54.35 -22.42,81.32 -67.27,81.32 h -98.63 z m -150.29,541.89 h 294.33 c 114.77,0 172.19,-64.33 172.19,-192.66 V 1148.8 c 0,-98.03 -29.65,-159.999 -89.1,-186.37 l 104.84,-468.059 h -142.75 l -98.48,454.168 h -90.74 V 494.371 H 3713.85 V 1618.87" /><path
         id="path38"
         style="fill:#ec008c;fill-opacity:1;fill-rule:nonzero;stroke:none"
         d="M 4384.06,494.371 V 1618.87 H 4534.2 V 494.371 h -150.14" /><path
         id="path40"
         style="fill:#ec008c;fill-opacity:1;fill-rule:nonzero;stroke:none"
         d="M 4753.46,494.371 V 1618.87 h 372.67 v -136.45 h -222.38 v -357.04 h 197.29 V 989.02 H 4903.75 V 630.781 h 222.38 v -136.41 h -372.67" /><path
         id="path42"
         style="fill:#ec008c;fill-opacity:1;fill-rule:nonzero;stroke:none"
         d="m 5600.7,1316.56 v 98.66 c 0,44.83 -22.09,67.2 -65.74,67.2 h -23.57 c -42.78,0 -64.24,-22.37 -64.24,-67.2 v -186.43 c 0,-20.71 4.22,-34.83 12.38,-42.05 8.46,-7.64 22.11,-17.01 40.92,-28.51 l 142.4,-76.56 c 31.56,-17.73 53.71,-31.64 66.66,-41.51 13.11,-10.17 23.07,-22.15 30.67,-36.11 7.26,-14.05 10.86,-40.851 10.86,-80.53 V 683.871 c 0,-126.359 -60.59,-189.5 -181.82,-189.5 h -92.09 c -120.18,0 -180.37,68.961 -180.37,206.649 v 56.41 h 150.39 v -60.899 c 0,-43.972 22.38,-65.75 67.42,-65.75 h 26.64 c 39.53,0 59.49,21.778 59.49,65.75 V 887.41 c 0,20.891 -4.22,35.012 -12.59,42.289 -8.31,7.43 -21.92,16.852 -40.77,28.18 l -142.36,79.651 c -31.35,16.98 -54.1,30.96 -68.2,42.6 -13.89,11.4 -24.22,26.15 -30.57,44.45 -6.35,18.27 -9.45,42.29 -9.45,71.5 v 230.13 c 0,128.33 60.19,192.66 180.37,192.66 h 93.65 c 119.94,0 180.26,-64.33 180.26,-192.66 V 1316.56 H 5600.7" /><path
         id="path44"
         style="fill:#231f20;fill-opacity:1;fill-rule:nonzero;stroke:none"
         d="m 4839.94,3450.18 c 99.36,0 180.08,80.12 180.08,179.68 0,99.26 -80.72,180.05 -180.08,180.05 -99.55,0 -180.02,-80.79 -180.02,-180.05 0,-99.56 80.47,-179.68 180.02,-179.68" /><path
         id="path46"
         style="fill:#231f20;fill-opacity:1;fill-rule:nonzero;stroke:none"
         d="m 3835.53,3533.47 -50.16,154.74 84.83,27.4 0.8,-2.58 c -15.22,-17.74 -23.38,-41.51 -21.25,-66.47 3.16,-39.86 31.79,-70.54 68.79,-79.85 l 1.79,-5.5 z m -199.26,-164.68 -110.45,76.31 -110.33,-76.9 38.63,128.47 -107.28,81.18 134.23,2.87 43.81,127.35 44.42,-127.09 134.53,-2.15 -106.8,-81.72 z m 1719.59,0.23 c -14.75,71.29 -105.9,97.84 -161.35,38.69 -65,-69.25 -134.06,-134.51 -201.07,-201.79 -4.55,-4.27 -9.12,-8.83 -14.57,-13.62 -5.28,4.79 -10.1,9.35 -14.36,13.62 -84.45,84.35 -168.65,168.06 -252.32,252.62 -1.19,1.28 -2.56,2.21 -3.93,3.27 l -283.55,284.75 -2.21,2.21 c -19.08,18.5 -44.57,29.88 -73.03,30.33 -0.58,0 -1.38,0.61 -1.97,0.61 -1.82,0 -3.16,-1.06 -4.86,-1.06 l -409.81,-33.79 c -7.05,-0.58 -13.1,-3.49 -19.43,-5.64 -10.31,19.73 -32.5,30.02 -54.44,22.89 l -88.32,-29.06 -31.54,96.83 -41.03,126.69 c -15.9,48.29 -67.41,74.64 -115.94,58.95 l -407.85,-132.94 c -48.34,-15.85 -74.55,-67.37 -58.95,-115.57 l 35.12,-107.63 154.75,-476.41 35.11,-107.23 c 15.59,-48.69 67.6,-74.98 115.8,-59.27 l 407.91,133.08 c 48.48,15.8 74.67,67.4 59.01,115.41 l -45.73,140.52 -26.93,82.82 88.46,28.67 c 20.9,6.85 32.73,26.95 30.6,47.99 l 308.64,25.63 41.7,3.32 29.7,-29.91 133.01,-133.26 c -34.18,-35.56 -65.06,-78.3 -95.43,-112.52 -5.76,-6.65 -9.84,-11.76 -13.92,-16.55 -194.26,-225.47 -388.81,-450.79 -583.07,-676.88 -8.48,-9.96 -17.15,-13.17 -29.71,-13.17 -129.55,0.9 -259.28,0.61 -388.63,1.49 -43.05,0.29 -78.54,-13.68 -102.64,-49.81 -9.35,-13.79 -13.92,-30.68 -20.62,-45.93 0,-11.04 0,-21.4 0,-31.8 1.11,-1.47 2.44,-2.78 2.79,-4.42 14.22,-61.2 53.95,-96.23 116.48,-96.23 169.42,-0.15 338.66,0.34 508.03,2.28 44.9,0.45 85.82,15.45 117.01,51.51 71.86,81.1 144.93,161.52 217.03,242.56 3.27,3.73 5.4,8.54 8.46,13.07 6.64,-5.74 9.73,-8.46 12.68,-11.37 83.86,-81.5 167.75,-163.56 252.13,-245 10.06,-9.32 11.56,-17.6 8.73,-30.61 -36.59,-160.99 -72.64,-321.97 -108.4,-482.96 -10.65,-48 11.81,-98.03 53.65,-121.94 71.21,-41.39 152.99,-2.37 171.76,82.11 46.6,207.46 93.73,414.61 139.1,621.76 10.35,47.38 0.68,90.29 -35.72,126 -73.44,72.51 -146.12,145.84 -218.91,218.55 -4.43,4.54 -8.69,9.04 -13.53,14.71 87.85,101.83 175.04,202.87 263.22,304.57 5.88,-5.32 10.6,-9.77 15.06,-13.97 50.25,-50.42 99.65,-101.03 150.08,-150.92 39.02,-38.8 87.32,-42.7 131.97,-10.46 11.56,8.22 21.81,17.89 31.56,27.89 79.65,79.6 158.48,159.7 238.16,239.1 20.96,21.24 40.92,41.93 48.95,71.36 0,10.45 0,21.1 0,31.66 -1.05,1.23 -2.44,2.72 -2.89,4.2" /><path
         id="path48"
         style="fill:#231f20;fill-opacity:1;fill-rule:nonzero;stroke:none"
         d="m 125.684,142.91 h 10.117 c 29.328,0 45.168,6.399 45.168,39.43 0,32.699 -18.879,37.422 -46.516,37.422 h -8.769 z m 0,-136.17953 H 76.1445 V 260.879 h 67.4105 c 53.254,0 87.968,-21.238 87.968,-78.867 0,-53.93 -29.328,-80.242 -81.23,-80.242 H 125.684 V 6.73047" /><path
         id="path50"
         style="fill:#231f20;fill-opacity:1;fill-rule:nonzero;stroke:none"
         d="m 435.066,218.75 c -46.851,0 -74.492,-41.469 -74.492,-82.578 0,-39.1017 19.555,-87.3126 74.492,-87.3126 54.946,0 74.497,48.2109 74.497,87.3126 0,41.109 -27.637,82.578 -74.497,82.578 z m 0,-218.75 c -77.527,0 -125.718,59.3086 -125.718,134.141 0,75.5 49.882,133.468 125.718,133.468 75.84,0 125.727,-57.968 125.727,-133.468 C 560.793,59.3086 512.59,0 435.066,0" /><path
         id="path52"
         style="fill:#231f20;fill-opacity:1;fill-rule:nonzero;stroke:none"
         d="m 701.953,143.922 h 6.406 c 27.305,0 46.512,8.09 46.512,39.098 0,31.351 -19.883,37.41 -46.172,37.41 h -6.746 z M 824.316,6.73047 h -60 L 702.629,109.199 h -0.676 V 6.73047 H 652.41 V 260.879 h 67.07 c 50.227,0 84.946,-22.25 84.946,-76.508 0,-32.359 -17.863,-64.73 -51.906,-70.449 L 824.316,6.73047" /><path
         id="path54"
         style="fill:#231f20;fill-opacity:1;fill-rule:nonzero;stroke:none"
         d="M 983.699,6.73047 H 934.148 V 217.73 h -51.226 v 43.149 H 1034.93 V 217.73 H 983.699 V 6.73047" /><path
         id="path56"
         style="fill:#231f20;fill-opacity:1;fill-rule:nonzero;stroke:none"
         d="m 1188.26,193.121 h -0.67 l -27.98,-92.34 h 60.33 z m -42.8,-132.789 -20.9,-53.60153 h -52.25 l 99.1,260.87853 h 38.42 l 96.4,-260.87853 h -52.91 L 1233.77,60.332 h -88.31" /><path
         id="path58"
         style="fill:#231f20;fill-opacity:1;fill-rule:nonzero;stroke:none"
         d="m 1438.31,46.5 h 10.45 c 26.63,0 49.55,3.3789 49.55,36.4102 0,33.0198 -26.97,34.3708 -51.91,34.3708 h -8.09 z m 0,108.539 h 6.07 c 24.26,0 36.06,7.09 36.06,33.371 0,25.961 -14.82,32.699 -35.72,32.699 h -6.41 z m -49.55,105.84 h 61.68 c 47.2,0 76.18,-18.539 76.18,-69.109 0,-18.2 -6.41,-39.098 -22.24,-49.2 30,-5.39 43.47,-35.738 43.47,-63.7106 0,-49.8789 -35.05,-72.12893 -81.23,-72.12893 h -77.86 V 260.879" /><path
         id="path60"
         style="fill:#231f20;fill-opacity:1;fill-rule:nonzero;stroke:none"
         d="m 1692.06,49.8789 h 70.12 V 6.73047 H 1642.52 V 260.879 h 49.54 V 49.8789" /><path
         id="path62"
         style="fill:#231f20;fill-opacity:1;fill-rule:nonzero;stroke:none"
         d="m 1894.94,217.73 v -55.96 h 78.88 v -43.141 h -78.88 V 49.8789 h 81.91 V 6.73047 H 1845.39 V 260.879 h 131.46 V 217.73 h -81.91" /><path
         id="path64"
         style="fill:#231f20;fill-opacity:1;fill-rule:nonzero;stroke:none"
         d="m 2291.58,49.8789 h 8.09 c 61.01,0 84.61,33.7109 84.61,83.9221 0,55.281 -28.32,83.929 -84.61,83.929 h -8.09 z m -49.55,211.0001 h 70.78 c 73.49,0 122.7,-54.949 122.7,-127.41 0,-71.4573 -50.56,-126.73853 -123.03,-126.73853 h -70.45 V 260.879" /><path
         id="path66"
         style="fill:#231f20;fill-opacity:1;fill-rule:nonzero;stroke:none"
         d="m 2576.68,6.73047 h -49.55 V 260.879 h 49.55 V 6.73047" /><path
         id="path68"
         style="fill:#231f20;fill-opacity:1;fill-rule:nonzero;stroke:none"
         d="M 2904.62,141.891 V 135.48 C 2904.62,63.6914 2867.87,0 2789,0 c -74.16,0 -121,62.6914 -121,132.789 0,72.481 48.19,134.82 124.03,134.82 43.15,0 80.9,-21.89 100.45,-60.66 l -43.82,-23.59 c -10.12,22.911 -31.69,40.442 -57.98,40.442 -47.86,0 -71.45,-48.879 -71.45,-91.012 0,-42.1288 23.93,-88.9882 71.8,-88.9882 31,0 56.96,26.9805 57.96,57.6402 h -53.92 v 40.45 h 109.55" /><path
         id="path70"
         style="fill:#231f20;fill-opacity:1;fill-rule:nonzero;stroke:none"
         d="m 3046.12,6.73047 h -49.55 V 260.879 h 49.55 V 6.73047" /><path
         id="path72"
         style="fill:#231f20;fill-opacity:1;fill-rule:nonzero;stroke:none"
         d="M 3232.15,6.73047 H 3182.6 V 217.73 h -51.23 v 43.149 h 152.02 V 217.73 h -51.24 V 6.73047" /><path
         id="path74"
         style="fill:#231f20;fill-opacity:1;fill-rule:nonzero;stroke:none"
         d="m 3436.72,193.121 h -0.68 l -27.97,-92.34 h 60.33 z M 3393.91,60.332 3373.01,6.73047 h -52.25 l 99.1,260.87853 h 38.43 l 96.4,-260.87853 h -52.92 L 3482.22,60.332 h -88.31" /><path
         id="path76"
         style="fill:#231f20;fill-opacity:1;fill-rule:nonzero;stroke:none"
         d="m 3686.76,49.8789 h 70.11 V 6.73047 H 3637.21 V 260.879 h 49.55 V 49.8789" /><path
         id="path78"
         style="fill:#231f20;fill-opacity:1;fill-rule:nonzero;stroke:none"
         d="m 4054.42,217.73 v -55.96 h 71.79 v -43.141 h -71.79 V 6.73047 h -49.55 V 260.879 h 126.07 V 217.73 h -76.52" /><path
         id="path80"
         style="fill:#231f20;fill-opacity:1;fill-rule:nonzero;stroke:none"
         d="m 4302.79,193.121 h -0.67 l -27.98,-92.34 h 60.33 z M 4259.98,60.332 4239.08,6.73047 h -52.24 l 99.1,260.87853 h 38.43 L 4420.76,6.73047 h -52.92 L 4348.29,60.332 h -88.31" /><path
         id="path82"
         style="fill:#231f20;fill-opacity:1;fill-rule:nonzero;stroke:none"
         d="m 4673.16,193.469 c -13.81,16.84 -34.71,26.961 -55.95,26.961 -47.53,0 -74.83,-43.809 -74.83,-87.641 0,-42.8085 28.31,-85.6093 74.5,-85.6093 21.23,0 42.47,11.1211 56.28,26.9609 V 15.1484 C 4654.62,6.37891 4636.08,0 4615.53,0 c -71.47,0 -124.39,61.6797 -124.39,131.77 0,72.152 50.9,135.839 125.39,135.839 19.9,0 39.44,-5.39 56.63,-14.82 v -59.32" /><path
         id="path84"
         style="fill:#231f20;fill-opacity:1;fill-rule:nonzero;stroke:none"
         d="m 4855.8,6.73047 h -49.55 V 217.73 h -51.23 v 43.149 h 152.02 V 217.73 H 4855.8 V 6.73047" /><path
         id="path86"
         style="fill:#231f20;fill-opacity:1;fill-rule:nonzero;stroke:none"
         d="m 5106.2,218.75 c -46.85,0 -74.49,-41.469 -74.49,-82.578 0,-39.1017 19.55,-87.3126 74.49,-87.3126 54.94,0 74.49,48.2109 74.49,87.3126 0,41.109 -27.64,82.578 -74.49,82.578 z M 5106.2,0 c -77.53,0 -125.73,59.3086 -125.73,134.141 0,75.5 49.89,133.468 125.73,133.468 75.84,0 125.72,-57.968 125.72,-133.468 C 5231.92,59.3086 5183.72,0 5106.2,0" /><path
         id="path88"
         style="fill:#231f20;fill-opacity:1;fill-rule:nonzero;stroke:none"
         d="m 5373.1,143.922 h 6.39 c 27.31,0 46.53,8.09 46.53,39.098 0,31.351 -19.9,37.41 -46.19,37.41 h -6.73 z M 5495.45,6.73047 h -60 L 5373.77,109.199 h -0.67 V 6.73047 h -49.56 V 260.879 h 67.08 c 50.22,0 84.94,-22.25 84.94,-76.508 0,-32.359 -17.86,-64.73 -51.91,-70.449 l 71.8,-107.19153" /><path
         id="path90"
         style="fill:#231f20;fill-opacity:1;fill-rule:nonzero;stroke:none"
         d="m 5548.66,260.879 h 57.64 l 44.49,-88.309 48.54,88.309 h 57.97 l -80.22,-137.52 V 6.73047 h -49.55 V 123.359 l -78.87,137.52" /></g></g></svg>