<?xml version="1.0" encoding="UTF-8" standalone="no"?>
<!-- Created with Inkscape (http://www.inkscape.org/) -->
<svg xmlns:dc="http://purl.org/dc/elements/1.1/" xmlns:cc="http://creativecommons.org/ns#" xmlns:rdf="http://www.w3.org/1999/02/22-rdf-syntax-ns#" xmlns:svg="http://www.w3.org/2000/svg" xmlns="http://www.w3.org/2000/svg" xmlns:sodipodi="http://sodipodi.sourceforge.net/DTD/sodipodi-0.dtd" xmlns:inkscape="http://www.inkscape.org/namespaces/inkscape" width="512mm" height="256mm" viewBox="0 0 1814.1732 907.08661" id="svg4589" version="1.1" inkscape:version="0.91 r13725" sodipodi:docname="about-logo.svg">
  <defs id="defs4591"/>
  <sodipodi:namedview id="base" pagecolor="#ffffff" bordercolor="#666666" borderopacity="1.0" inkscape:pageopacity="0.0" inkscape:pageshadow="2" inkscape:zoom="0.7" inkscape:cx="536.21931" inkscape:cy="55.265661" inkscape:document-units="px" inkscape:current-layer="layer1" showgrid="false" inkscape:window-width="3200" inkscape:window-height="1702" inkscape:window-x="0" inkscape:window-y="54" inkscape:window-maximized="1"/>
  <metadata id="metadata4594">
    <rdf:RDF>
      <cc:Work rdf:about="">
        <dc:format>image/svg+xml</dc:format>
        <dc:type rdf:resource="http://purl.org/dc/dcmitype/StillImage"/>
        <dc:title/>
      </cc:Work>
    </rdf:RDF>
  </metadata>
  <g inkscape:label="Layer 1" inkscape:groupmode="layer" id="layer1" transform="translate(0,-145.27559)">
    <path style="fill:#0994dc;fill-opacity:1;stroke-width:0.2;stroke-linejoin:round" inkscape:connector-curvature="0" d="m 1210.5088,529.31822 c 22.0252,-29.18005 34.3855,-76.04563 13.4329,-109.78319 11.2822,-55.69582 -13.9665,-102.82113 -51.0365,-141.92044 -40.5602,-31.05423 -67.9597,-84.0749 -120.8747,-93.71755 l -32.2347,-2.6757 c -74.67351,-24.6356 -169.49369,-24.90132 -239.0597,10.70825 -31.70111,45.79454 -87.83962,38.02771 -115.50594,88.36669 -21.75843,6.96314 -45.39541,25.97346 -53.7209,48.19745 1.87854,35.34548 -24.7151,59.17521 -18.80177,96.39924 7.24736,50.33953 58.28386,91.84173 104.75195,104.42525 36.79768,14.19526 78.43601,-7.4924 110.13167,18.74732 37.8758,5.35249 90.79083,14.72887 123.56462,-8.03145 6.18013,-6.15836 0.53906,-14.19526 -5.37427,-18.74188 -128.18747,17.86522 -206.50913,-5.09113 -185.75803,-104.09855 -27.75889,29.68644 -3.15269,74.47745 -4.94955,88.03019 -24.4483,5.08568 -47.81847,-7.77009 -69.84372,-16.06835 -37.87579,-20.88723 -49.15795,-61.05539 -42.97781,-99.07658 19.60764,-25.16758 2.68441,-67.74409 40.2934,-83.00549 19.41162,-3.26812 44.50243,-6.76875 59.06251,9.8648 7.85721,-3.59264 13.73787,-9.00612 16.50396,-17.28532 -11.28216,-7.52234 -20.8709,-22.38299 -35.27851,-22.03832 11.81577,-16.59924 31.69566,-25.4333 51.04194,-29.44848 43.51143,-54.89214 114.96143,-61.59173 182.6489,-56.23652 l 0,2.68005 c -41.09927,20.62042 -75.74615,62.65842 -75.20709,109.78645 4.29615,4.01737 8.32004,8.83624 13.4275,10.71206 10.7431,-4.01954 15.85056,-14.99731 13.43295,-26.77714 7.51962,-36.41762 42.70556,-68.55215 77.8915,-77.65465 48.09069,-14.19362 98.04909,-0.53361 134.31319,29.45503 35.9918,47.92954 101.5285,81.13566 99.3831,147.27401 -12.6271,40.69471 26.3268,80.32926 -2.6844,117.81845 -23.3702,42.03582 -66.3534,59.17685 -107.4473,69.61502 -35.42,0.62074 -73.53,-2.38493 -97.73325,-25.90212 -26.51741,-25.77144 -32.80645,-75.03285 8.48335,-78.38156 22.1723,-2.61907 43.457,-10.95 64.1918,-25.16159 3.8388,-9.71398 3.866,-18.84534 -3.4413,-27.00747 -32.8446,-5.63237 -59.3511,34.76667 -93.63314,17.53307 -19.50963,-0.65885 -24.72054,-1.89488 -33.4653,-13.07357 -9.7412,-3.82243 -18.90523,-3.84421 -27.09459,3.43038 -18.07758,29.75178 28.46674,30.50864 40.54387,46.2394 -1.65529,26.35407 -12.3276,39.3024 13.03002,76.19265 28.48308,41.43686 78.59394,55.24007 127.88794,49.18517 l -0.071,0.0163 86.3912,72.47367 -43.2555,-82.9064 -0.087,0.0218 c 32.3926,-11.84299 61.2459,-32.0877 79.1275,-58.1804 z" id="path4244"/>
    <path style="fill:#666666;fill-opacity:1;stroke-width:0.2;stroke-linejoin:round" inkscape:connector-curvature="0" d="m 743.84041,347.36913 c 16.15003,0 29.25083,13.05452 29.25083,29.15446 0,16.10211 -13.1008,29.14955 -29.25083,29.14955 -16.15003,0 -29.23994,-13.04744 -29.23994,-29.14955 0,-16.09994 13.08991,-29.15446 29.23994,-29.15446 z" id="path4246"/>
    <rect style="fill:#666666;fill-opacity:1;stroke-width:0.2;stroke-linejoin:round" x="742.28864" y="325.40869" width="3.1054668" height="102.22273" id="rect4248"/>
    <rect style="fill:#666666;fill-opacity:1;stroke-width:0.2;stroke-linejoin:round" x="692.57526" y="374.97232" width="102.54343" height="3.0957856" id="rect4250"/>
    <path style="fill:#666666;fill-opacity:1;stroke-width:0.2;stroke-linejoin:round" inkscape:connector-curvature="0" d="m 779.00457,339.2865 2.19436,2.18727 -72.51179,72.28201 -2.19435,-2.18728 72.51178,-72.282 z" id="path4252"/>
    <path style="fill:#666666;fill-opacity:1;stroke-width:0.2;stroke-linejoin:round" inkscape:connector-curvature="0" d="m 706.49823,333.47595 2.18891,-2.18945 72.51179,72.282 -2.19436,2.18946 -72.50634,-72.28201 z" id="path4254"/>
    <text transform="scale(1.0015705,0.99843199)" xml:space="preserve" id="text4256" x="95.228455" y="691.95374" style="font-size:65.44326782px"><tspan style="font-size:64.94953156px;font-family:Candara;letter-spacing:0em;fill:#000000;fill-opacity:1;stroke-width:0.2;stroke-linejoin:round" letter-spacing="0.00em" id="tspan4258"/></text>
    <text transform="scale(1.0015705,0.99843199)" xml:space="preserve" id="text4260" x="100.66497" y="691.95374" style="font-size:65.44326782px"><tspan style="font-size:64.94953156px;font-family:Candara;letter-spacing:0em;fill:#000000;fill-opacity:1;stroke-width:0.2;stroke-linejoin:round" letter-spacing="0.00em" id="tspan4262"/></text>
    <text transform="scale(1.0015705,0.99843199)" xml:space="preserve" id="text4264" x="95.228455" y="675.5929" style="font-size:65.44326782px"/>
    <path style="fill:#606059;fill-opacity:1" d="m 309.3896,993.0382 0,-31.7598 6.73694,0 6.73694,0 0,31.7598 0,31.7599 -6.73694,0 -6.73694,0 0,-31.7599 z m 25.02292,-0.1107 0,-31.8705 7.98693,0.5919 7.98693,0.5919 12.70943,22.4608 c 6.99018,12.3534 13.17878,22.9301 13.75243,23.5038 0.57366,0.5736 0.68369,-9.7503 0.24451,-22.942 l -0.7985,-23.985 6.00689,0 6.00689,0 0,31.7598 0,31.7599 -7.21815,-0.016 c -7.21005,-0.016 -7.23328,-0.043 -20.69203,-23.5793 l -13.47388,-23.5629 -0.54045,23.5793 -0.54046,23.5793 -5.71527,0 -5.71527,0 0,-31.8706 z m 85.82916,30.227 c -1.50569,-2.4363 -22.28253,-58.7485 -22.29703,-60.4325 -0.007,-0.794 2.81174,-1.4436 6.26349,-1.4436 l 6.27593,0 7.67916,25.0089 c 4.22354,13.7549 8.11226,25.0091 8.64159,25.0094 0.52933,2e-4 4.44338,-11.0372 8.69788,-24.5277 7.69049,-24.3856 7.77164,-24.5317 13.95509,-25.1314 3.42079,-0.3317 6.21962,0.1012 6.21962,0.962 0,0.8608 -4.98052,15.2006 -11.06783,31.8662 l -11.06782,30.3011 -6.14213,0.016 c -3.37818,0.01 -6.59925,-0.724 -7.15795,-1.628 z m 43.13509,-30.1163 0,-31.7598 25.02292,0 25.02291,0 0,4.8121 c 0,4.7952 -0.0641,4.8121 -18.28598,4.8121 l -18.28597,0 0,8.6617 0,8.6618 17.32356,0 c 17.19522,0 17.32355,0.036 17.32355,4.8121 0,4.7765 -0.12839,4.8121 -17.32355,4.8121 l -17.32356,0 0,8.6618 0,8.6618 19.24839,0 c 19.2484,0 19.2484,0 19.2484,4.8121 l 0,4.8121 -25.98533,0 -25.98534,0 0,-31.7599 z m 73.14489,29.5974 c -5.98752,-2.3875 -13.47486,-9.278 -13.47486,-12.4007 0,-1.2887 2.33393,-2.9288 5.18648,-3.6448 4.01987,-1.0089 5.8958,-0.3614 8.33983,2.8788 4.7614,6.3123 19.31782,7.508 24.78962,2.0362 5.68017,-5.6802 2.56239,-10.9811 -8.03245,-13.6571 -16.48219,-4.1629 -23.92029,-7.7613 -26.14756,-12.6496 -3.49143,-7.6628 -2.63657,-12.2416 3.41538,-18.2936 5.17004,-5.17 6.74342,-5.6264 19.39645,-5.6264 12.65303,0 14.22642,0.4564 19.39646,5.6264 3.09456,3.0946 5.62646,6.5593 5.62646,7.6994 0,3.1804 -12.88484,2.5346 -14.12919,-0.7082 -1.45239,-3.7848 -13.36114,-5.7935 -18.3904,-3.1019 -2.35017,1.2578 -4.05236,4.0635 -4.05236,6.6796 0,4.797 4.58015,7.4148 17.32355,9.9015 18.10298,3.5324 25.06513,13.3013 18.98701,26.6413 -4.02257,8.8285 -25.54301,13.6799 -38.23442,8.6191 z m 65.44356,-24.7853 0,-26.9477 -9.62419,0 c -8.9826,0 -9.6242,-0.3208 -9.6242,-4.8121 l 0,-4.8121 26.94775,0 26.94776,0 0,4.8121 c 0,4.5496 -0.57745,4.8121 -10.58662,4.8121 l -10.58662,0 0,26.9477 0,26.9478 -6.73694,0 -6.73694,0 0,-26.9478 z m 54.85793,24.2306 c -16.28601,-7.2384 -22.65247,-26.9368 -14.50593,-44.8828 5.10916,-11.255 13.34019,-15.9034 28.17638,-15.9125 9.01527,-0.01 13.26591,1.0084 18.28597,4.362 18.92333,12.6416 17.2312,45.4665 -2.84481,55.1851 -9.32787,4.5155 -20.66639,5.0017 -29.11161,1.2482 z m 27.42897,-13.7492 c 3.37409,-3.8342 4.33089,-7.2694 4.33089,-15.5489 0,-9.1795 -0.76651,-11.3938 -5.62646,-16.2538 -12.27623,-12.2762 -30.9455,-3.6215 -30.9455,14.3458 0,11.4857 3.40168,18.485 10.53996,21.6871 7.75928,3.4808 16.39721,1.797 21.70111,-4.2302 z m 27.42896,-15.2935 0,-31.7598 18.96117,0 c 22.30345,0 30.15714,2.2472 34.0304,9.7373 4.62706,8.9477 3.55583,15.1078 -3.84023,22.0831 l -6.66901,6.2897 7.63143,11.8073 c 4.19729,6.494 7.63143,12.2112 7.63143,12.7048 0,0.4936 -2.95397,0.8975 -6.56439,0.8975 -5.9856,0 -7.2611,-1.1032 -14.4661,-12.5115 -7.56814,-11.9833 -8.22545,-12.5114 -15.57126,-12.5114 l -7.66956,0 0,12.5114 0,12.5115 -6.73694,0 -6.73694,0 0,-31.7599 z m 40.03667,-5.197 c 1.27039,-1.2704 2.3098,-4.7566 2.3098,-7.747 0,-6.611 -5.4393,-9.1916 -19.3737,-9.1916 l -9.49889,0 0,9.6242 0,9.6242 12.12649,0 c 6.86527,0 13.12862,-1.0022 14.4363,-2.3098 z m 52.35563,5.197 0,-31.7598 17.38539,0 c 26.37017,0 34.58528,4.8007 34.58528,20.2108 0,14.1138 -8.10045,20.2108 -26.85216,20.2108 l -11.64463,0 0,11.549 0,11.5491 -6.73694,0 -6.73694,0 0,-31.7599 z m 37.54115,-5.5147 c 2.20133,-3.3596 2.50378,-5.8121 1.15446,-9.3611 -1.99251,-5.2407 -6.85144,-7.1929 -18.00358,-7.2335 l -7.21815,-0.026 0,10.5866 0,10.5866 10.54225,0 c 8.96057,0 10.98974,-0.683 13.52502,-4.5523 z m 24.05372,5.5147 0,-31.7598 18.96117,0 c 22.30345,0 30.15714,2.2472 34.0304,9.7373 4.62706,8.9477 3.55583,15.1078 -3.84023,22.0831 l -6.66901,6.2897 7.63143,11.8073 c 4.19729,6.494 7.63143,12.2112 7.63143,12.7048 0,0.4936 -2.95397,0.8975 -6.56439,0.8975 -5.9856,0 -7.2611,-1.1032 -14.4661,-12.5115 -7.56814,-11.9833 -8.22545,-12.5114 -15.57126,-12.5114 l -7.66956,0 0,12.5114 0,12.5115 -6.73694,0 -6.73694,0 0,-31.7599 z m 40.03667,-5.197 c 1.27039,-1.2704 2.3098,-4.7566 2.3098,-7.747 0,-6.611 -5.4393,-9.1916 -19.3737,-9.1916 l -9.49889,0 0,9.6242 0,9.6242 12.12649,0 c 6.86527,0 13.12862,-1.0022 14.4363,-2.3098 z m 43.69386,34.2397 c -16.28601,-7.2384 -22.65248,-26.9368 -14.50594,-44.8828 5.10916,-11.255 13.3402,-15.9034 28.17638,-15.9125 9.01527,-0.01 13.26592,1.0084 18.28597,4.362 18.92331,12.6416 17.23121,45.4665 -2.84481,55.1851 -9.32787,4.5155 -20.66639,5.0017 -29.1116,1.2482 z m 27.42896,-13.7492 c 3.37409,-3.8342 4.33089,-7.2694 4.33089,-15.5489 0,-9.1795 -0.76651,-11.3938 -5.62646,-16.2538 -12.27622,-12.2762 -30.94549,-3.6215 -30.94549,14.3458 0,11.4857 3.40167,18.485 10.53996,21.6871 7.75928,3.4808 16.39721,1.797 21.7011,-4.2302 z m 27.42896,-15.2935 0,-31.7598 23.0981,0 23.0981,0 0,4.8121 c 0,4.7555 -0.1925,4.8121 -16.3612,4.8121 l -16.3611,0 0,10.5866 0,10.5866 16.3611,0 c 16.1687,0 16.3612,0.057 16.3612,4.8121 0,4.7555 -0.1925,4.8121 -16.3612,4.8121 l -16.3611,0 0,11.549 0,11.5491 -6.737,0 -6.7369,0 0,-31.7599 z m 55.8204,0 0,-31.7598 6.7369,0 6.7369,0 0,31.7598 0,31.7599 -6.7369,0 -6.7369,0 0,-31.7599 z m 25.0229,0 0,-31.7598 6.7369,0 6.7369,0 0,26.9477 0,26.9478 17.3236,0 c 17.1952,0 17.3236,0.036 17.3236,4.8121 l 0,4.8121 -24.0605,0 -24.0605,0 0,-31.7599 z m 55.8203,0 0,-31.7598 25.0229,0 25.0229,0 0,4.8121 c 0,4.7952 -0.064,4.8121 -18.2859,4.8121 l -18.286,0 0,8.6617 0,8.6618 17.3236,0 c 17.1952,0 17.3235,0.036 17.3235,4.8121 0,4.7765 -0.1284,4.8121 -17.3235,4.8121 l -17.3236,0 0,8.6618 0,8.6618 19.2484,0 c 19.2484,0 19.2484,0 19.2484,4.8121 l 0,4.8121 -25.9853,0 -25.9854,0 0,-31.7599 z m 61.5949,0 0,-31.7598 18.9612,0 c 22.3034,0 30.1571,2.2472 34.0304,9.7373 4.627,8.9477 3.5558,15.1078 -3.8403,22.0831 l -6.669,6.2897 7.6314,11.8073 c 4.1973,6.494 7.6315,12.2112 7.6315,12.7048 0,0.4936 -2.954,0.8975 -6.5644,0.8975 -5.9856,0 -7.2611,-1.1032 -14.4661,-12.5115 -7.5682,-11.9833 -8.2255,-12.5114 -15.5713,-12.5114 l -7.6695,0 0,12.5114 0,12.5115 -6.737,0 -6.7369,0 0,-31.7599 z m 40.0367,-5.197 c 1.2703,-1.2704 2.3098,-4.7566 2.3098,-7.747 0,-6.611 -5.4393,-9.1916 -19.3737,-9.1916 l -9.4989,0 0,9.6242 0,9.6242 12.1265,0 c 6.8652,0 13.1286,-1.0022 14.4363,-2.3098 z m 66.7292,33.2352 c -11.0718,-5.6569 -15.2887,-13.6655 -15.3148,-29.0852 -0.024,-14.3141 3.1776,-20.9124 13.076,-26.9478 12.1042,-7.3804 38.6545,-3.5415 43.9508,6.3549 1.5532,2.902 1.419,4.2479 -0.5477,5.4941 -4.0741,2.5816 -7.3718,2.0244 -12.6662,-2.1401 -7.5494,-5.9384 -18.756,-5.1635 -25.6962,1.7767 -4.5972,4.5973 -5.6265,7.2555 -5.6265,14.5319 0,12.4715 4.1897,19.6398 13.0039,22.2487 10.6675,3.1575 22.3816,-1.001 23.2147,-8.2411 0.5761,-5.0066 0.185,-5.2933 -7.2181,-5.2933 -7.0658,0 -7.8272,-0.4681 -7.8272,-4.8121 0,-4.6776 0.3791,-4.8121 13.5618,-4.8121 l 13.5618,0 -0.5691,12.8119 c -0.562,12.6493 -0.6607,12.8594 -7.7729,16.5424 -11.042,5.718 -27.6393,6.4203 -37.1303,1.5711 z m 54.8953,2.278 c -0.014,-0.7939 4.8946,-15.1286 10.9077,-31.8548 l 10.9331,-30.4112 7.825,0.5762 7.825,0.5762 10.9837,29.835 c 6.041,16.4093 11.037,30.5395 11.1023,31.4006 0.065,0.8611 -2.6298,1.2942 -5.989,0.9624 -5.299,-0.5233 -6.4705,-1.6971 -8.85,-8.8674 l -2.7426,-8.2642 -12.651,0.5649 -12.6509,0.5648 -2.7199,8.1806 c -2.3714,7.1327 -3.439,8.1806 -8.334,8.1806 -3.0877,0 -5.6255,-0.6497 -5.6394,-1.4437 z m 37.4078,-29.835 c -0.7556,-2.382 -2.8361,-8.6341 -4.6234,-13.8935 l -3.2496,-9.5627 -4.1681,12.3425 c -2.2925,6.7883 -4.1681,13.0404 -4.1681,13.8935 0,0.8531 3.9561,1.5511 8.7914,1.5511 8.241,0 8.7055,-0.2712 7.4178,-4.3309 z m 31.9117,-0.5866 0,-31.8654 9.0703,0.5867 9.0704,0.5867 6.8096,21.6138 c 3.7453,11.8875 7.2767,21.632 7.8476,21.6544 0.571,0.022 4.0438,-9.7038 7.7175,-21.6138 l 6.6794,-21.6544 9.1249,-0.5867 9.1249,-0.5867 0,31.8654 0,31.8653 -5.717,0 -5.717,0 -0.5387,-24.5417 -0.5388,-24.5417 -7.7806,24.0605 c -7.1174,22.0097 -8.1769,24.0605 -12.4302,24.0605 -4.2533,0 -5.3128,-2.0508 -12.4302,-24.0605 l -7.7806,-24.0605 -0.5387,24.5417 -0.5387,24.5417 -5.7171,0 -5.717,0 0,-31.8653 z m 76.9936,0.1054 0,-31.7598 25.0229,0 25.023,0 0,4.8121 c 0,4.7952 -0.064,4.8121 -18.286,4.8121 l -18.286,0 0,8.6617 0,8.6618 17.3236,0 c 17.1952,0 17.3235,0.036 17.3235,4.8121 0,4.7765 -0.1284,4.8121 -17.3235,4.8121 l -17.3236,0 0,8.6618 0,8.6618 19.2484,0 c 19.2484,0 19.2484,0 19.2484,4.8121 l 0,4.8121 -25.9853,0 -25.9854,0 0,-31.7599 z" id="path4159" inkscape:connector-curvature="0"/>
    <path style="fill:#0599e0;fill-opacity:1" d="m 285.53634,869.5119 c -34.88012,-2.4073 -58.19584,-24.4563 -63.68021,-60.2205 -1.41625,-9.2357 -0.93234,-31.5716 0.86269,-39.8185 4.18401,-19.2227 12.40187,-33.6848 24.76537,-43.5831 12.40664,-9.9329 29.37004,-14.4673 47.25592,-12.6318 21.97303,2.2549 38.08493,13.7133 47.35822,33.6802 4.94393,10.6451 6.04635,16.4023 6.44865,33.6766 l 0.35307,15.1602 -52.06578,0 -52.06578,0 0.45577,6.3929 c 2.38305,33.4257 23.03017,50.2405 57.79936,47.071 11.2374,-1.0244 22.12139,-3.3838 32.03151,-6.9437 l 7.14318,-2.566 -0.20235,10.3527 -0.20236,10.3524 -6.54486,2.4374 c -15.23277,5.6726 -31.7552,7.8796 -49.7124,6.6402 z m 38.35723,-97.1473 c 0,-10.6608 -4.27886,-22.8018 -10.43737,-29.6155 -10.01954,-11.0856 -30.0905,-13.7474 -45.73396,-6.0651 -11.23115,5.5154 -19.7147,19.289 -21.88332,35.5287 l -0.60979,4.5664 39.33222,0 39.33222,0 z m 109.07606,97.1018 c -19.66544,-1.3816 -33.94348,-9.5625 -40.62833,-23.2791 -6.04862,-12.411 -6.34557,-16.0769 -6.34557,-78.3391 l 0,-52.4407 11.68982,0 11.68981,0 0,50.7247 c 0,32.2279 0.28678,52.7867 0.78643,56.3791 1.95715,14.0714 8.32483,22.4043 19.90197,26.0443 6.81983,2.1442 22.25386,2.2761 29.72394,0.254 17.55456,-4.7518 26.45281,-16.678 29.19824,-39.1337 0.44531,-3.6423 0.75692,-24.3214 0.75692,-50.2297 l 0,-44.0387 11.68982,0 11.68982,0 0,76.005 0,76.0051 -9.67853,-0.2039 -9.67854,-0.2038 -1.51564,-9.6722 c -0.83361,-5.3196 -1.74625,-9.9026 -2.02809,-10.1844 -0.28185,-0.2819 -1.06501,0.2897 -1.74038,1.27 -2.89666,4.2048 -9.20754,10.0375 -13.90074,12.8475 -11.63222,6.9648 -24.12016,9.4244 -41.61095,8.1956 z m 297.46298,0.017 c -31.9425,-2.335 -54.99778,-25.3033 -60.6486,-60.4198 -1.52659,-9.487 -1.4801,-27.8999 0.0939,-37.1916 5.91828,-34.9373 27.38529,-55.7405 60.52081,-58.6497 38.7147,-3.3989 66.19657,16.6649 75.04635,54.7894 1.88974,8.1412 2.6362,27.5568 1.4507,37.7364 -2.31713,19.8977 -9.56343,35.5608 -21.78573,47.0908 -13.55624,12.7882 -31.73382,18.3217 -54.67743,16.6445 z m 23.42706,-21.441 c 13.95093,-4.6207 22.4516,-14.7325 27.22039,-32.3794 1.81594,-6.7201 1.91924,-8.0259 1.91924,-24.2716 0,-16.247 -0.10316,-17.5512 -1.91983,-24.2738 -6.28204,-23.2474 -20.32339,-34.4065 -43.2933,-34.4065 -19.27622,0 -31.94535,7.5752 -39.21145,23.4458 -6.63134,14.484 -8.06429,41.2022 -3.23128,60.2497 4.60031,18.1306 15.35319,29.403 31.48353,33.0047 7.69416,1.7179 19.52097,1.1191 27.0327,-1.3689 z m -734.631998,-81.8572 0,-101.19 13.349469,0 13.349481,0 55.034988,84.3859 c 30.26924,46.4122 55.24913,84.3862 55.51086,84.3866 0.26173,5e-4 0.0936,-7.3148 -0.37354,-16.2561 -0.5116,-9.7913 -0.87482,-43.3533 -0.91327,-84.3867 l -0.0639,-68.1297 10.95921,0 10.9592,0 0,101.19 0,101.19 -13.3337,-0.01 -13.3337,-0.01 -55.161325,-84.7425 C 64.872703,736.005 39.770148,697.8688 39.427987,697.8664 c -0.342161,0 -0.413944,2.2152 -0.159523,4.9276 1.350569,14.3984 1.852574,41.2509 1.864417,99.7287 l 0.01315,64.842 -10.959201,0 -10.959205,0 0,-101.1901 z m 542.115338,25.2247 0,-76.0024 9.43376,0 9.43375,0 0.40666,2.7398 c 0.22365,1.5069 0.77714,7.1784 1.22996,12.6031 0.45282,5.4248 1.05091,10.6404 1.32909,11.5901 0.46446,1.5857 0.72706,1.3683 3.21522,-2.6629 3.81532,-6.1813 12.16013,-14.8697 18.02888,-18.7712 10.15354,-6.7501 20.02045,-8.9074 34.84987,-7.6195 4.7398,0.4117 8.76998,0.9007 8.95598,1.0867 0.41523,0.4151 -2.21098,19.7062 -2.81601,20.6851 -0.27226,0.4406 -3.15615,0.2911 -7.72924,-0.4005 -14.09828,-2.132 -24.71838,0.5498 -34.84591,8.7997 -7.24926,5.9052 -13.34629,15.4596 -16.36812,25.6498 -1.16621,3.9326 -1.34158,9.1941 -1.70475,51.1429 l -0.40481,46.7593 -11.50717,0.2012 -11.50716,0.2012 z" id="path4176" inkscape:connector-curvature="0" sodipodi:nodetypes="ssssssscccsssccccssssscccsssscccsssssscccccccsccssssssssssssssssscsccccscsscccccccscsscccccccccssssscccsssscccc"/>
    <path inkscape:connector-curvature="0" id="path4202" d="m 847.74351,825.3649 0,-109.9574 9.37552,0 9.37553,0 1.24599,8.5847 c 0.68532,4.7216 1.41717,9.4573 1.62635,10.5239 0.36406,1.856 0.69942,1.6197 7.82648,-5.5146 5.99117,-5.9973 8.51683,-7.9691 12.92572,-10.0913 13.22828,-6.3674 30.88294,-7.8432 46.39401,-3.8781 18.85998,4.821 33.83844,20.6318 40.17971,42.4118 6.03043,20.7125 5.70399,50.6439 -0.76457,70.1129 -8.27048,24.8923 -26.43184,39.8822 -50.76425,41.8992 -8.13139,0.6741 -18.24284,-0.02 -24.85245,-1.7056 -10.17294,-2.5946 -21.85735,-9.9196 -27.36187,-17.1536 -2.25007,-2.9571 -4.72166,-4.1118 -3.57371,-1.6696 0.33051,0.7032 0.7179,20.4297 0.86087,43.8368 l 0.2598,42.5583 -11.37652,0 -11.37661,0 z m 80.73286,22.9852 c 11.10987,-4.1751 19.16378,-13.0843 23.8823,-26.4183 7.06924,-19.9767 6.18304,-49.8225 -1.98056,-66.7059 -5.16437,-10.6802 -12.83598,-17.6768 -22.94503,-20.9261 -6.0816,-1.9549 -19.05317,-2.1136 -26.63727,-0.3262 -6.8622,1.6173 -14.47327,5.7566 -18.11684,9.8529 -9.11887,10.252 -12.95429,28.8901 -11.50183,55.8929 0.82318,15.3038 2.79116,23.9927 7.41756,32.7494 4.28519,8.1108 13.33303,14.5608 23.21425,16.5489 2.21011,0.4445 4.67587,0.9595 5.47957,1.1442 0.80371,0.1848 4.91342,0.2233 9.13273,0.086 5.71134,-0.1863 8.79152,-0.671 12.05512,-1.8975 z m 261.92493,21.1501 c -29.1589,-2.1616 -51.6549,-22.0398 -59.1508,-52.2678 -4.4142,-17.7999 -3.6513,-42.6873 1.8282,-59.6452 5.9005,-18.2605 19.8091,-33.3662 36.731,-39.8919 16.1114,-6.2132 38.9125,-6.3678 54.8848,-0.3722 16.7796,6.2986 30.3778,20.5873 37.2958,39.1897 7.5728,20.3633 7.2912,51.2531 -0.6546,71.8575 -8.3592,21.676 -25.5107,36.0788 -47.646,40.0103 -7.6069,1.3511 -15.2248,1.7173 -23.2884,1.1196 z m 17.8432,-19.9913 c 16.4048,-3.1387 27.8103,-14.8781 32.5405,-33.4933 2.3941,-9.4217 3.3461,-23.018 2.3729,-33.8906 -1.5784,-17.6347 -6.062,-29.4883 -14.282,-37.7585 -8.1743,-8.2241 -17.3567,-11.6137 -31.5338,-11.6402 -29.9398,-0.056 -44.9458,19.5687 -44.9284,58.7588 0.01,16.2945 2.1963,27.1982 7.5264,37.4882 8.7227,16.84 27.0027,24.6113 48.3044,20.5356 z m 394.5882,19.9569 c -30.9511,-1.9766 -53.834,-20.8178 -61.3528,-50.516 -5.6216,-22.205 -3.5498,-50.157 5.1148,-69.0041 5.3393,-11.6142 15.034,-22.7241 24.9478,-28.5898 13.9638,-8.2618 34.1435,-10.743 51.4082,-6.321 15.4356,3.9535 28.8259,15.2914 36.2497,30.6931 5.3582,11.1164 7.5552,22.8491 7.559,40.3664 l 0,9.6807 -52.2389,0 -52.2389,0 0.01,2.0092 c 0.01,3.3801 2.0562,15.655 3.3233,19.9092 3.4658,11.6361 11.9334,22.0728 21.6207,26.648 8.7846,4.1491 13.4651,5.0797 25.4641,5.0632 15.63,-0.022 30.5169,-3.0607 46.2319,-9.4378 1.2143,-0.4927 1.2859,0.1513 1.0959,9.87 l -0.2032,10.3974 -5.3748,2.1317 c -14.9004,5.9103 -32.4463,8.3238 -51.6131,7.0998 z m 38.7561,-98.6522 c -2.1904,-25.1103 -15.2609,-38.6522 -37.2464,-38.5892 -15.8413,0.045 -28.4817,7.8732 -35.3733,21.9057 -2.7795,5.6591 -5.8975,16.6874 -5.9391,21.0051 l -0.016,1.6439 39.5475,0 39.5475,0 -0.5204,-5.9655 z m -620.2028,96.0745 c -0.2679,-0.2679 -0.4871,-34.4702 -0.4871,-76.005 l 0,-75.518 9.6807,0.2039 9.6806,0.2038 1.2003,12.4205 c 1.7295,17.8952 1.3632,16.6792 3.8504,12.7857 6.5266,-10.2168 14.8735,-18.278 23.7153,-22.9031 8.7445,-4.5744 16.6642,-5.8617 29.6517,-4.82 4.8049,0.3856 8.9793,0.9451 9.2767,1.2436 0.2973,0.2985 -0.1652,5.2558 -1.0278,11.0161 l -1.5682,10.4735 -2.2288,-0.4585 c -14.8203,-3.0486 -26.3877,-1.5734 -35.8895,4.5773 -6.4093,4.1486 -13.5061,12.2086 -17.0213,19.3316 -5.5874,11.3214 -5.4558,9.9078 -5.7493,61.7244 l -0.2619,46.2113 -11.1673,0 c -6.1421,0 -11.3866,-0.2192 -11.6545,-0.4871 z m 292.9761,0 c -0.2679,-0.2679 -0.4871,-30.3509 -0.4871,-66.8512 l 0,-66.3641 -13.5163,0 -13.5164,0 0,-5.0711 c 0,-2.7891 0.3217,-5.27 0.7149,-5.513 0.3934,-0.2431 6.3935,-2.1676 13.3338,-4.2769 l 12.6187,-3.8351 0.8582,-12.4869 c 1.0074,-14.6557 2.2339,-20.2839 6.2603,-28.7273 5.298,-11.1093 14.6189,-18.5208 27.2675,-21.6816 8.2249,-2.0552 23.3777,-1.7347 33.8806,0.7168 4.596,1.0728 8.6219,2.216 8.9463,2.5405 0.3245,0.3244 -0.7619,4.631 -2.4141,9.57 -2.7559,8.2385 -3.1328,8.9433 -4.5626,8.5339 -19.8344,-5.6802 -31.0992,-4.9042 -38.193,2.631 -5.3018,5.6314 -7.4541,13.2441 -8.0742,28.5579 l -0.4364,10.7765 19.4674,0 19.4675,0 0,9.1327 0,9.1326 -19.3613,0 -19.3612,0 0,66.8512 0,66.8512 -11.2028,0 c -6.1615,0 -11.422,-0.2192 -11.6898,-0.4871 z m 88.9844,-0.4262 c -0.1913,-0.5023 -0.2632,-34.6128 -0.1595,-75.8012 l 0.1882,-74.8879 11.5071,-0.2012 11.5071,-0.2011 0,76.0023 0,76.0024 -11.3473,0 c -8.4054,0 -11.4377,-0.2368 -11.6956,-0.9133 z m 71.6008,0 c -0.1911,-0.5023 -0.263,-48.9146 -0.1596,-107.5828 l 0.1876,-106.6696 11.5072,-0.2012 11.5072,-0.2013 0,107.7841 0,107.7841 -11.3476,0 c -8.4055,0 -11.4374,-0.2368 -11.6948,-0.9133 z m 230.5367,-75.052 0,-76.0024 9.415,0 9.4149,0 0.4228,3.1051 c 0.2324,1.7079 0.8135,7.708 1.2911,13.3337 0.4775,5.6258 1.0882,10.6586 1.3567,11.1842 0.3174,0.6206 1.4673,-0.6303 3.2807,-3.5681 1.5357,-2.488 4.9558,-6.8172 7.6003,-9.6205 12.737,-13.5019 25.6062,-18.2667 44.7892,-16.5833 4.5312,0.3976 8.5392,1.0236 8.9069,1.3913 0.6407,0.6408 -1.5485,19.014 -2.4368,20.4513 -0.2282,0.3694 -3.7135,0.1596 -8.0652,-0.4854 -15.5112,-2.2989 -27.4238,1.4518 -37.5963,11.8369 -6.1412,6.2697 -9.2703,11.316 -12.3442,19.907 l -2.2902,6.401 -0.3653,47.1246 -0.3654,47.1246 -11.5071,0.2012 -11.5071,0.2012 z M 1409.2201,688.8005 c -5.0887,-2.2714 -7.6715,-7.1957 -7.6715,-14.6268 0,-8.0413 4.2892,-13.6413 11.2474,-14.6847 6.5996,-0.9897 13.3714,3.0532 15.0125,8.9628 2.487,8.9553 -0.8321,18.0808 -7.4942,20.605 -2.8033,1.0622 -8.4317,0.9321 -11.0942,-0.2563 z" style="fill:#606059;fill-opacity:1" sodipodi:nodetypes="ccccscsssssscscscccccsccsssscccccscsssssssssssscsscssssscccccscccscccccccccccccsscccssccccccccscsscscccscscsccscsccscccccccccsccscccccsccscccccscccccccccssccssccccccccscccc"/>
  </g>
</svg>